<svg width="1440" height="247" viewBox="0 0 1440 247" fill="none" xmlns="http://www.w3.org/2000/svg">
<rect x="814" y="210.119" width="188" height="277" transform="rotate(-25.2244 814 210.119)" fill="#268498"/>
<rect x="815.331" y="210.597" width="186" height="275" transform="rotate(-25.2244 815.331 210.597)" stroke="black" stroke-opacity="0.25" stroke-width="2"/>
<rect x="875" y="107" width="188" height="277" fill="#268498"/>
<rect x="876" y="108" width="186" height="275" stroke="black" stroke-opacity="0.25" stroke-width="2"/>
<rect x="841" y="146.119" width="188" height="277" transform="rotate(-25.2244 841 146.119)" fill="#268498"/>
<rect x="842.331" y="146.597" width="186" height="275" transform="rotate(-25.2244 842.331 146.597)" stroke="black" stroke-opacity="0.25" stroke-width="2"/>
<rect x="827" y="182.119" width="188" height="277" transform="rotate(-25.2244 827 182.119)" fill="#268498"/>
<rect x="828.331" y="182.597" width="186" height="275" transform="rotate(-25.2244 828.331 182.597)" stroke="black" stroke-opacity="0.25" stroke-width="2"/>
<rect x="815" y="218.119" width="188" height="277" transform="rotate(-25.2244 815 218.119)" fill="#268498"/>
<rect x="816.331" y="218.597" width="186" height="275" transform="rotate(-25.2244 816.331 218.597)" stroke="black" stroke-opacity="0.25" stroke-width="2"/>
<rect x="801" y="257.119" width="188" height="277" transform="rotate(-25.2244 801 257.119)" fill="#268498"/>
<rect x="802.331" y="257.597" width="186" height="275" transform="rotate(-25.2244 802.331 257.597)" stroke="black" stroke-opacity="0.25" stroke-width="2"/>
<rect x="789" y="294.119" width="188" height="277" transform="rotate(-25.2244 789 294.119)" fill="#268498"/>
<rect x="790.331" y="294.597" width="186" height="275" transform="rotate(-25.2244 790.331 294.597)" stroke="black" stroke-opacity="0.25" stroke-width="2"/>
<rect x="161" y="33" width="201" height="217" fill="#268498"/>
<rect x="162" y="34" width="199" height="215" stroke="black" stroke-opacity="0.25" stroke-width="2"/>
<rect x="296.356" y="2" width="201" height="217" transform="rotate(57.6677 296.356 2)" fill="#268498"/>
<rect x="296.046" y="3.37979" width="199" height="215" transform="rotate(57.6677 296.046 3.37979)" stroke="black" stroke-opacity="0.25" stroke-width="2"/>
<rect x="193" y="81.8972" width="109.211" height="117.905" transform="rotate(-6.78211 193 81.8972)" fill="#268498"/>
<rect x="194.111" y="82.7721" width="107.211" height="115.905" transform="rotate(-6.78211 194.111 82.7721)" stroke="black" stroke-opacity="0.25" stroke-width="2"/>
<rect x="251.426" y="62" width="102.539" height="103.674" transform="rotate(37.0233 251.426 62)" fill="#268498"/>
<rect x="251.623" y="63.4005" width="100.539" height="101.674" transform="rotate(37.0233 251.623 63.4005)" stroke="black" stroke-opacity="0.25" stroke-width="2"/>
<rect x="267.431" y="65" width="59.8394" height="60.5018" transform="rotate(37.0233 267.431 65)" fill="#268498"/>
<rect x="267.627" y="66.4005" width="57.8394" height="58.5018" transform="rotate(37.0233 267.627 66.4005)" stroke="black" stroke-opacity="0.25" stroke-width="2"/>
<rect x="225.431" y="126" width="59.8394" height="60.5018" transform="rotate(37.0233 225.431 126)" fill="#268498"/>
<rect x="225.627" y="127.401" width="57.8394" height="58.5018" transform="rotate(37.0233 225.627 127.401)" stroke="black" stroke-opacity="0.25" stroke-width="2"/>
<rect x="246.176" y="113" width="33.1397" height="33.5065" transform="rotate(37.0233 246.176 113)" fill="#268498"/>
<rect x="246.372" y="114.401" width="31.1397" height="31.5065" transform="rotate(37.0233 246.372 114.401)" stroke="black" stroke-opacity="0.25" stroke-width="2"/>
<rect x="247.872" y="128" width="11.2871" height="11.412" transform="rotate(37.0233 247.872 128)" fill="#268498"/>
<rect x="248.068" y="129.401" width="9.28707" height="9.41201" transform="rotate(37.0233 248.068 129.401)" stroke="black" stroke-opacity="0.25" stroke-width="2"/>
<rect x="1073" y="45" width="201" height="217" fill="#3184C1"/>
<rect x="1074" y="46" width="199" height="215" stroke="black" stroke-opacity="0.25" stroke-width="2"/>
<circle cx="1173.5" cy="81.5" r="81.5" fill="#3184C1"/>
<circle cx="1173.5" cy="81.5" r="80.5" stroke="black" stroke-opacity="0.25" stroke-width="2"/>
<circle cx="1173.5" cy="253.5" r="81.5" fill="#3184C1"/>
<circle cx="1173.5" cy="253.5" r="80.5" stroke="black" stroke-opacity="0.25" stroke-width="2"/>
<rect x="1174.25" y="124" width="62.579" height="62.579" transform="rotate(45 1174.25 124)" fill="#3184C1"/>
<rect x="1174.25" y="125.414" width="60.579" height="60.579" transform="rotate(45 1174.25 125.414)" stroke="black" stroke-opacity="0.25" stroke-width="2"/>
<rect x="370" y="33" width="201" height="249" fill="#3184C1"/>
<rect x="371" y="34" width="199" height="247" stroke="black" stroke-opacity="0.25" stroke-width="2"/>
<rect x="390" y="44" width="201" height="249" fill="#3184C1"/>
<rect x="391" y="45" width="199" height="247" stroke="black" stroke-opacity="0.25" stroke-width="2"/>
<rect x="417" y="65" width="201" height="249" fill="#3184C1"/>
<rect x="418" y="66" width="199" height="247" stroke="black" stroke-opacity="0.25" stroke-width="2"/>
<rect x="453" y="87" width="201" height="249" fill="#3184C1"/>
<rect x="454" y="88" width="199" height="247" stroke="black" stroke-opacity="0.25" stroke-width="2"/>
<rect x="482" y="114" width="201" height="249" fill="#3184C1"/>
<rect x="483" y="115" width="199" height="247" stroke="black" stroke-opacity="0.25" stroke-width="2"/>
<rect x="510" y="139" width="201" height="249" fill="#3184C1"/>
<rect x="511" y="140" width="199" height="247" stroke="black" stroke-opacity="0.25" stroke-width="2"/>
<rect x="533" y="158" width="201" height="249" fill="#3184C1"/>
<rect x="534" y="159" width="199" height="247" stroke="black" stroke-opacity="0.25" stroke-width="2"/>
<rect x="553" y="181" width="201" height="249" fill="#3184C1"/>
<rect x="554" y="182" width="199" height="247" stroke="black" stroke-opacity="0.25" stroke-width="2"/>
<rect x="1281" y="82" width="201" height="168" fill="#7941B0"/>
<rect x="1282" y="83" width="199" height="166" stroke="black" stroke-opacity="0.25" stroke-width="2"/>
<rect x="1310" y="101" width="155" height="130" fill="#7941B0"/>
<rect x="1311" y="102" width="153" height="128" stroke="black" stroke-opacity="0.25" stroke-width="2"/>
<rect x="1331" y="118" width="113" height="95" fill="#7941B0"/>
<rect x="1332" y="119" width="111" height="93" stroke="black" stroke-opacity="0.25" stroke-width="2"/>
<rect x="1353" y="137" width="69" height="58" fill="#7941B0"/>
<rect x="1354" y="138" width="67" height="56" stroke="black" stroke-opacity="0.25" stroke-width="2"/>
<rect x="1370" y="151" width="34" height="29" fill="#7941B0"/>
<rect x="1371" y="152" width="32" height="27" stroke="black" stroke-opacity="0.25" stroke-width="2"/>
<rect x="1380" y="160" width="14" height="12" fill="#7941B0"/>
<rect x="1381" y="161" width="12" height="10" stroke="black" stroke-opacity="0.25" stroke-width="2"/>
<rect x="1386" y="165" width="2" height="2" fill="#7941B0"/>
<rect x="1386.5" y="165.5" width="1" height="1" stroke="black" stroke-opacity="0.25"/>
<rect x="666" y="74" width="201" height="195" fill="#2555B3"/>
<rect x="667" y="75" width="199" height="193" stroke="black" stroke-opacity="0.25" stroke-width="2"/>
<path d="M681.233 113.89L852.705 113.356L767.431 262.122L681.233 113.89Z" fill="#2555B3"/>
<path d="M767.425 260.122L682.968 114.885L850.976 114.361L767.425 260.122Z" stroke="black" stroke-opacity="0.25" stroke-width="2"/>
<path d="M681.233 139.89L852.705 139.356L767.431 288.122L681.233 139.89Z" fill="#2555B3"/>
<path d="M767.425 286.122L682.968 140.885L850.976 140.361L767.425 286.122Z" stroke="black" stroke-opacity="0.25" stroke-width="2"/>
<path d="M850.882 313.88L679.426 316.279L763.077 166.594L850.882 313.88Z" fill="#2555B3"/>
<path d="M763.104 168.594L849.137 312.904L681.144 315.255L763.104 168.594Z" stroke="black" stroke-opacity="0.25" stroke-width="2"/>
<path d="M825.058 236.014L775.391 236.709L799.622 193.349L825.058 236.014Z" fill="#2555B3"/>
<path d="M799.65 195.349L823.312 235.038L777.109 235.685L799.65 195.349Z" stroke="black" stroke-opacity="0.25" stroke-width="2"/>
<path d="M759.058 236.014L709.391 236.709L733.622 193.349L759.058 236.014Z" fill="#2555B3"/>
<path d="M733.65 195.349L757.312 235.038L711.109 235.685L733.65 195.349Z" stroke="black" stroke-opacity="0.25" stroke-width="2"/>
<rect x="-49" y="82" width="201" height="168" fill="#7941B0"/>
<rect x="-48" y="83" width="199" height="166" stroke="black" stroke-opacity="0.25" stroke-width="2"/>
<rect x="-20" y="101" width="155" height="130" fill="#7941B0"/>
<rect x="-19" y="102" width="153" height="128" stroke="black" stroke-opacity="0.25" stroke-width="2"/>
<rect x="1" y="118" width="113" height="95" fill="#7941B0"/>
<rect x="2" y="119" width="111" height="93" stroke="black" stroke-opacity="0.25" stroke-width="2"/>
<rect x="23" y="137" width="69" height="58" fill="#7941B0"/>
<rect x="24" y="138" width="67" height="56" stroke="black" stroke-opacity="0.25" stroke-width="2"/>
<rect x="40" y="151" width="34" height="29" fill="#7941B0"/>
<rect x="41" y="152" width="32" height="27" stroke="black" stroke-opacity="0.25" stroke-width="2"/>
<rect x="50" y="160" width="14" height="12" fill="#7941B0"/>
<rect x="51" y="161" width="12" height="10" stroke="black" stroke-opacity="0.25" stroke-width="2"/>
<rect x="56" y="165" width="2" height="2" fill="#7941B0"/>
<rect x="56.5" y="165.5" width="1" height="1" stroke="black" stroke-opacity="0.25"/>
</svg>
